# xmcd CD database file
# Copyright (C) 1997 Ti Kan
# 
# Track frame offsets:
#     150
#     27712
#     52672
#     73667
#     95832
#     121680
#     141540
#     159185
#     180622
#     194942
#     212850
# 
# Disc length: 3101 seconds
# 
# Revision: 1
# Processed by: cddbd v1.4b41PL1 Copyright (c) Steve Scherf et al.
# Submitted via: DiscPlay 4.0.4
# 
DISCID=a70c1b0b
DTITLE=Teena Marie - Lady T
DYEAR=1900
DGENRE=
TTITLE0=Behind The Groove
TTITLE1=Now That I have You
TTITLE2=Lonely Desire
TTITLE3=Aladdins Lamp
TTITLE4=You're All The Boogie I Need
TTITLE5=Can It Be Love
TTITLE6=Young Girl In love
TTITLE7=Why Did I have To full in Love With You
TTITLE8=Too Many Colors (Tee's Interlude)
TTITLE9=Why Can't I get Next To You
TTITLE10=Co-Pilot to Pilot
EXTD=
EXTT0=
EXTT1=
EXTT2=
EXTT3=
EXTT4=
EXTT5=
EXTT6=
EXTT7=
EXTT8=
EXTT9=
EXTT10=
PLAYORDER=
